<?xml version="1.0" encoding="utf-8"?>
<!-- Generator: Adobe Illustrator 16.0.3, SVG Export Plug-In . SVG Version: 6.00 Build 0)  -->
<!DOCTYPE svg PUBLIC "-//W3C//DTD SVG 1.1//EN" "http://www.w3.org/Graphics/SVG/1.1/DTD/svg11.dtd">
<svg version="1.1" id="Ebene_1" xmlns="http://www.w3.org/2000/svg" xmlns:xlink="http://www.w3.org/1999/xlink" x="0px" y="0px"
	 width="394px" height="210px" viewBox="0 0 394 210" enable-background="new 0 0 394 210" xml:space="preserve">
<g>
	<polygon fill="#9D9D9C" points="384.373,123.954 357.407,123.954 345.913,87.155 335.126,123.954 311.102,123.954 330.904,58.909 
		316.223,9.526 340.41,9.526 349.344,42.729 359.313,9.526 381.894,9.526 364.734,62.505 	"/>
	<path d="M9.993,77.479h22.662v24.591c0,3.922,1.28,5.866,3.813,5.866c2.56,0,3.84-3.752,3.84-11.289
		c0-9.789-1.58-16.098-4.712-18.963c-11.848-7.811-19.012-13.233-21.463-16.337c-2.452-3.104-3.678-7.742-3.678-13.95V31.812
		c0-16.337,8.853-24.488,26.502-24.488c17.187,0,25.767,7.844,25.767,23.499v22.885H40.554l0.463-13.916
		c0-9.652-1.389-14.461-4.222-14.461c-2.806,0-4.222,3.001-4.222,9.072c0,6.276,0.626,10.982,1.879,14.188
		s8.198,8.697,20.864,16.507c5.257,4.707,7.899,10.982,7.899,18.758v17.395c0,16.337-8.961,24.488-26.883,24.488
		c-17.568,0-26.339-7.845-26.339-23.5V77.479z"/>
	<path d="M121.149,74.99H90.588v27.08c0,3.922,1.335,5.866,3.977,5.866c2.615,0,3.922-1.944,3.922-5.866V78.673h22.662v23.567
		c0,15.655-8.906,23.5-26.747,23.5c-17.65,0-26.475-8.151-26.475-24.488v-69.44c0-16.337,8.825-24.488,26.475-24.488
		c17.841,0,26.747,7.844,26.747,23.499V74.99L121.149,74.99z M98.487,57.596V31.027c0-3.82-1.307-5.696-3.922-5.696
		c-2.642,0-3.977,1.876-3.977,5.696v26.569H98.487z"/>
	<polygon points="185.075,8.142 168.406,124.137 140.951,124.137 124.281,8.142 147.161,8.142 154.978,76.661 162.659,8.142 	"/>
	<path d="M241.402,74.99h-30.56v27.08c0,3.922,1.334,5.866,3.976,5.866c2.615,0,3.922-1.944,3.922-5.866V78.673h22.662v23.567
		c0,15.655-8.906,23.5-26.747,23.5c-17.65,0-26.475-8.151-26.475-24.488v-69.44c0-16.337,8.825-24.488,26.475-24.488
		c17.841,0,26.747,7.844,26.747,23.499V74.99L241.402,74.99z M218.74,57.596V31.027c0-3.82-1.307-5.696-3.922-5.696
		c-2.642,0-3.976,1.876-3.976,5.696v26.569H218.74z"/>
	<path d="M299.745,124.137h-22.743v-93.11c0-3.547-1.307-5.321-3.922-5.321c-2.587,0-3.895,1.706-3.895,5.116v93.315h-22.743V8.142
		h22.743v3.888c3.024-3.138,7.708-4.707,14.027-4.707c4.113,0,7.872,1.398,11.331,4.195c3.459,2.796,5.203,6.889,5.203,12.312
		V124.137z"/>
	<rect x="9.609" y="145.195" fill-rule="evenodd" clip-rule="evenodd" fill="#008BD2" width="111.34" height="55.67"/>
	<rect x="140.122" y="145.195" fill-rule="evenodd" clip-rule="evenodd" fill="#D51224" width="111.34" height="55.67"/>
	<rect x="270.634" y="145.195" fill-rule="evenodd" clip-rule="evenodd" fill="#AFCB27" width="111.34" height="55.67"/>
</g>
</svg>
